<?xml version="1.0" encoding="utf-8"?>
<!-- Generator: Adobe Illustrator 16.0.0, SVG Export Plug-In . SVG Version: 6.00 Build 0)  -->
<svg version="1.2" baseProfile="tiny" id="Layer_1" xmlns="http://www.w3.org/2000/svg" xmlns:xlink="http://www.w3.org/1999/xlink"
	 x="0px" y="0px" width="64px" height="64px" viewBox="0 0 64 64" xml:space="preserve">
<path fill="#40A8C9" d="M59,44c0,5.522-4.478,10-10,10h-9l-8,10l-8-10h-9C9.477,54,5,49.522,5,44V10C5,4.477,9.477,0,15,0h34
	c5.522,0,10,4.477,10,10V44z"/>
<g>
	<path fill="#FFFFFF" d="M11.03,15.076h8.88l3.15,14.07h0.09l3.06-14.07h8.731v21.42H29.33V19.815h-0.059L25.34,36.496h-4.68
		l-4.14-16.681h-0.09v16.681h-5.4V15.076z"/>
	<path fill="#FFFFFF" d="M38.871,15.076H53.75v4.08h-8.82v4.29h8.281v4.08H44.93v4.89h9.211v4.081h-15.27V15.076z"/>
</g>
<g>
</g>
<g>
</g>
<g>
</g>
<g>
</g>
<g>
</g>
<g>
</g>
<g>
</g>
<g>
</g>
<g>
</g>
<g>
</g>
<g>
</g>
<g>
</g>
<g>
</g>
<g>
</g>
<g>
</g>
</svg>
