<?xml version="1.0" encoding="utf-8"?>
<!-- Generator: Adobe Illustrator 16.0.0, SVG Export Plug-In . SVG Version: 6.00 Build 0)  -->
<svg version="1.2" baseProfile="tiny" id="Layer_1" xmlns="http://www.w3.org/2000/svg" xmlns:xlink="http://www.w3.org/1999/xlink"
	 x="0px" y="0px" width="64px" height="64px" viewBox="0 0 64 64" xml:space="preserve">
<g>
	<path fill="#40A8C9" d="M24.48,53H15c-4.953,0-10-5.047-10-10V9c0-5.008,5.084-8,10-8h34c4.935,0,8,3.065,8,8v34
		c0,4.916-2.992,10-8,10h-9.48L32,62.399L24.48,53z"/>
	<path fill="#FFFFFF" d="M49,2c4.448,0,7,2.551,7,7v34c0,5.634-3.56,9-7,9h-9h-0.961l-0.601,0.751L32,60.799l-6.438-8.048L24.961,52
		H24h-9c-4.458,0-9-4.542-9-9V9c0-3.441,3.366-7,9-7H49 M49,0H15C9.477,0,4,3.477,4,9v34c0,5.522,5.477,11,11,11h9l8,10l8-10h9
		c5.522,0,9-5.478,9-11V9C58,3.477,54.522,0,49,0L49,0z"/>
</g>
<g>
	<path fill="#FFFFFF" d="M10.03,15.076h8.88l3.15,14.07h0.09l3.06-14.07h8.731v21.42H28.33V19.815h-0.059L24.34,36.496h-4.68
		l-4.14-16.681h-0.09v16.681h-5.4V15.076z"/>
	<path fill="#FFFFFF" d="M37.871,15.076H52.75v4.08h-8.82v4.29h8.281v4.08H43.93v4.89h9.211v4.081h-15.27V15.076z"/>
</g>
<g>
</g>
<g>
</g>
<g>
</g>
<g>
</g>
<g>
</g>
<g>
</g>
<g>
</g>
<g>
</g>
<g>
</g>
<g>
</g>
<g>
</g>
<g>
</g>
<g>
</g>
<g>
</g>
<g>
</g>
</svg>
