<?xml version="1.0" encoding="utf-8"?>
<!-- Generator: Adobe Illustrator 16.0.0, SVG Export Plug-In . SVG Version: 6.00 Build 0)  -->
<svg version="1.2" baseProfile="tiny" id="Layer_1" xmlns="http://www.w3.org/2000/svg" xmlns:xlink="http://www.w3.org/1999/xlink"
	 x="0px" y="0px" width="400px" height="100px" viewBox="0 0 400 100" xml:space="preserve">
<g>
	<path fill="#FFFFFF" stroke="#FFFFFF" d="M77.976,32.198c-0.433,0.721-1.442,1.3-2.241,1.3c-5.13-0.144-9.179-0.144-14.6-0.288
		c2.024,0.724,3.397,1.229,5.133,2.238c1.084,0.727,2.241,0.727,1.809,3.111c-2.532,11.279-6.074,22.981-9.615,34.188
		c-0.291,0.652-0.792,1.806-1.664,1.806c-2.964,0.294-6.218,0.294-9.035-0.865c-1.301-0.433-2.385-2.101-2.021-3.397
		c2.745-9.539,7.227-25.949,10.191-37.228c-3.542,0-7.302,0-10.843-0.429c-1.88-0.144-2.024-0.727-1.88-2.965
		c0.144-2.676,0.868-5.497,2.024-7.881c0.508-0.865,1.084-1.445,2.676-1.445c0.94,0.144,30.066,0.724,30.066,0.724
		c2.096,0.291,2.244,1.514,2.244,2.961C80.219,26.705,79.063,29.813,77.976,32.198z"/>
	<path fill="#FFFFFF" stroke="#FFFFFF" d="M113.829,33.499c-7.374,0.436-14.243,0.436-22.19,0.144
		c1.586,0.508,2.814,1.232,3.974,1.517c3.542,1.304,1.66,3.691,0.72,7.23c4.193,0.147,9.327,0,13.375,0.292
		c3.253,0.288-0.796,12.43-2.82,12.649c-1.085,0.145-10.264-0.219-14.384-0.219c-0.865,2.387-1.592,4.92-2.385,7.445
		c5.206,0.145,10.12-0.432,14.676,0.295c1.95,0.282,0,11.996-3.253,11.996c-6.073,0.289-13.156,0-19.373,0
		c-2.529,0-5.782-5.346-6.218-7.521c-0.363-1.66,2.457-8.742,2.965-12.215c-0.508,0-1.517,0-2.241-0.289
		c-1.087-0.576,0.868-12.141,4.265-12.141c1.084,0,1.084,0,1.517,0.144c0.723-2.751,2.168-6.649,2.82-9.326
		c-0.652,0-4.049,0-3.905-1.153c0.436-3.686,1.229-7.377,3.109-10.558c0.363-1.012,2.529-1.301,3.469-1.301
		c9.467-0.577,20.241-0.577,28.264,0.144C119.611,20.922,114.842,33.499,113.829,33.499z"/>
	<path fill="#FFFFFF" stroke="#FFFFFF" d="M139.342,51.713c4.121,6.438,11.711,19.306,12.147,21.035c0.141,0.94,0,1.229-0.292,1.518
		c-2.241,2.1-4.917,3.828-7.446,4.556c-1.013,0.145-1.877-0.144-2.241-0.288c-3.833-3.115-9.47-13.877-13.011-20.238
		c-1.153,4.557-2.817,9.752-4.118,14.453c-0.289,1.379-1.084,2.1-2.1,2.1c-3.253,0-5.923-0.438-8.888-1.955
		c-1.157-0.577-1.805-1.305-1.445-3.247c3.542-14.315,7.951-30.221,12.865-47.492c0.433-1.378,1.949-1.667,3.397-1.667
		c2.385,0,5.058,0.58,7.23,1.445c0.94,0.361,2.097,1.52,1.953,2.676c-1.013,5.35-3.109,11.276-4.413,16.772
		c7.521-2.385,12-8.747,15.255-20.022c0.289-0.871,2.021-0.871,2.961-0.727c2.604,0.583,5.277,0.872,7.518,2.097
		c0.724,0.436,1.01,1.733,0.724,2.385C153.51,42.39,146.716,48.604,139.342,51.713z"/>
	<path fill="#FFFFFF" stroke="#FFFFFF" d="M193.266,34.875c-1.157,0.865-9.906,1.589-9.906-0.147c0-0.793-0.289-1.808-2.238-1.664
		c-1.952,0.147-2.964,1.812-2.676,3.256c1.517,7.584,8.746,13.081,8.022,22.121c-1.157,14.453-12.141,16.979-20.455,16.553
		c-4.121-0.288-11.423,0-11.564-4.268c0-4.482,1.082-8.6,2.385-12.43c0.288-0.797,1.517-1.517,2.529-1.805
		c2.096-0.295,4.409-0.295,6.506,0c0.868,0.138,1.52,0.865,1.808,1.586c0.433,0.939,0,2.1,0.145,3.184
		c0.144,0.281,0.144,0.865,0.865,0.865c2.82,0,4.265-1.805,4.121-3.686c-0.865-7.591-9.324-14.242-9.18-22.121
		c0.145-12.867,15.105-16.553,22.84-16.117c2.532,0,5.064,0,7.377,0.865c1.225,0.58,2.526,1.952,2.382,3.25
		C196.083,28.008,196.083,32.49,193.266,34.875z"/>
	<path fill="#FFFFFF" stroke="#FFFFFF" d="M231.282,33.499c-7.37,0.436-14.237,0.436-22.188,0.144
		c1.589,0.508,2.817,1.232,3.974,1.517c3.541,1.304,1.661,3.691,0.724,7.23c4.19,0.147,9.323,0,13.369,0.292
		c3.253,0.288-0.792,12.43-2.817,12.649c-1.084,0.145-10.266-0.219-14.385-0.219c-0.864,2.387-1.592,4.92-2.387,7.445
		c5.208,0.145,10.121-0.432,14.678,0.295c1.95,0.282,0,11.996-3.252,11.996c-6.073,0.289-13.156,0-19.374,0
		c-2.532,0-5.779-5.346-6.218-7.521c-0.357-1.66,2.46-8.742,2.965-12.215c-0.505,0-1.517,0-2.241-0.289
		c-1.082-0.576,0.868-12.141,4.265-12.141c1.084,0,1.084,0,1.516,0.144c0.724-2.751,2.169-6.649,2.821-9.326
		c-0.652,0-4.049,0-3.902-1.153c0.432-3.686,1.229-7.377,3.106-10.558c0.363-1.012,2.531-1.301,3.466-1.301
		c9.47-0.577,20.245-0.577,28.264,0.144C237.067,20.922,232.295,33.499,231.282,33.499z"/>
	<path fill="#FFFFFF" stroke="#FFFFFF" d="M262.727,54.822c2.965,5.498,7.516,12.648,9.903,17.493
		c0.288,0.728,0.144,1.95-0.438,2.389c-2.238,1.805-4.77,3.247-7.588,4.262c-1.012,0.288-2.459,0.288-2.961-0.577
		c-4.557-6.217-7.809-13.162-11.783-20.238c-1.084,4.551-2.676,10.191-4.049,14.453c-0.288,0.797-1.012,1.95-1.88,1.95
		c-3.47,0.15-6.214-0.427-9.396-1.511c-0.721-0.295-1.153-1.455-1.012-2.175c1.372-7.296,6.938-27.103,9.611-36.574
		c-1.442,0.289-3.253,0.865-4.694,1.009c-0.797,0.145-2.532,0.58-2.532-1.153c0-3.472,1.447-9.542,2.82-10.122
		c7.227-2.67,10.986-3.253,17.058-3.686c12.72-1.009,20.241,7.878,20.097,16.409C275.739,43.333,273.207,50.409,262.727,54.822z
		 M247.908,33.354c2.24,0.649,4.408,1.229,5.349,1.52c0.721,0.285,2.024,0.865,1.88,2.385c-0.436,2.745-1.447,5.779-1.88,8.524
		c4.409,0.94,10.335-4.694,10.047-8.744C262.871,30.967,252.028,32.919,247.908,33.354z"/>
	<path fill="#FFFFFF" stroke="#FFFFFF" d="M294.241,72.604c-1.16,1.807-2.532,2.101-4.122,2.101c-2.384,0-5.492-0.872-7.445-2.389
		c-1.301-1.009-1.301-3.108-1.444-4.845c-0.94-14.818-1.806-29.635-1.373-44.452c0-1.087,1.229-2.388,2.526-2.532
		c2.968-0.285,6.072,0.289,8.605,1.445c1.3,0.504,1.661,2.097,1.805,3.325c0.576,8.894,0.145,18.646,0.145,27.396
		c3.544-9.176,7.951-20.89,11.711-30.646c0.432-1.084,2.166-1.52,3.397-1.376c2.817,0.292,5.926,0.872,8.383,2.388
		c1.083,0.721,1.083,2.673,0.651,3.83C310.574,43.903,304.432,56.051,294.241,72.604z"/>
	<path fill="#FFFFFF" stroke="#FFFFFF" d="M351.847,33.499c-7.37,0.436-14.24,0.436-22.187,0.144
		c1.586,0.508,2.814,1.232,3.973,1.517c3.542,1.304,1.662,3.691,0.728,7.23c4.187,0.147,9.319,0,13.368,0.292
		c3.254,0.288-0.796,12.43-2.82,12.649c-1.084,0.145-10.26-0.219-14.385-0.219c-0.863,2.387-1.592,4.92-2.381,7.445
		c5.203,0.145,10.115-0.432,14.666,0.295c1.949,0.282,0,11.996-3.246,11.996c-6.073,0.289-13.156,0-19.373,0
		c-2.532,0-5.785-5.346-6.218-7.521c-0.357-1.66,2.457-8.742,2.966-12.215c-0.509,0-1.518,0-2.246-0.289
		c-1.077-0.576,0.872-12.141,4.27-12.141c1.084,0,1.084,0,1.517,0.144c0.72-2.751,2.169-6.649,2.82-9.326
		c-0.651,0-4.049,0-3.905-1.153c0.434-3.686,1.229-7.377,3.108-10.558c0.364-1.012,2.527-1.301,3.468-1.301
		c9.475-0.577,20.237-0.577,28.266,0.144C357.632,20.922,352.863,33.499,351.847,33.499z"/>
</g>
<g>
</g>
<g>
</g>
<g>
</g>
<g>
</g>
<g>
</g>
<g>
</g>
<g>
</g>
<g>
</g>
<g>
</g>
<g>
</g>
<g>
</g>
<g>
</g>
<g>
</g>
<g>
</g>
<g>
</g>
</svg>
